# Blender v2.79 (sub 0) OBJ File: 'pa.blend'
# www.blender.org
o Cube.001_Cube.002
v -0.890226 -0.990875 -0.108785
v -0.890226 -1.000000 -0.086756
v -0.912254 -0.990875 -0.086756
v -0.913666 -0.978928 -0.110196
v -0.990875 -0.912254 -0.086756
v -1.000000 -0.890226 -0.086756
v -0.990875 -0.890226 -0.108785
v -0.978928 -0.913666 -0.110196
v -0.890226 -0.912254 -0.187406
v -0.913666 -0.913666 -0.175458
v -0.912254 -0.890226 -0.187406
v -0.890226 -0.890226 -0.196530
v -0.990875 0.890226 -0.108785
v -1.000000 0.890226 -0.086756
v -0.990875 0.912254 -0.086756
v -0.978928 0.913666 -0.110196
v -0.912254 0.990875 -0.086756
v -0.890226 1.000000 -0.086756
v -0.890226 0.990875 -0.108785
v -0.913666 0.978928 -0.110196
v -0.912254 0.890226 -0.187406
v -0.913666 0.913666 -0.175458
v -0.890226 0.912254 -0.187406
v -0.890226 0.890226 -0.196530
v 0.912254 -0.990875 -0.086756
v 0.890226 -1.000000 -0.086756
v 0.890226 -0.990875 -0.108784
v 0.913666 -0.978928 -0.110196
v 0.890226 -0.912254 -0.187406
v 0.890226 -0.890226 -0.196530
v 0.912254 -0.890226 -0.187406
v 0.913666 -0.913666 -0.175458
v 0.990875 -0.912254 -0.086756
v 0.978928 -0.913666 -0.110196
v 0.990875 -0.890226 -0.108784
v 1.000000 -0.890226 -0.086756
v 0.890226 0.990875 -0.108784
v 0.890226 1.000000 -0.086756
v 0.912254 0.990875 -0.086756
v 0.913666 0.978928 -0.110196
v 0.990875 0.912254 -0.086756
v 1.000000 0.890226 -0.086756
v 0.990875 0.890226 -0.108784
v 0.978928 0.913666 -0.110196
v 0.890226 0.912254 -0.187406
v 0.913666 0.913666 -0.175458
v 0.912254 0.890226 -0.187406
v 0.890226 0.890226 -0.196530
v -0.912254 -0.990875 0.086756
v -0.890226 -1.000000 0.086756
v -0.890226 -0.990875 0.108784
v -0.913666 -0.978928 0.110196
v -0.890226 -0.912254 0.187406
v -0.890226 -0.890226 0.196530
v -0.912254 -0.890226 0.187406
v -0.913666 -0.913666 0.175458
v -0.990875 -0.912254 0.086756
v -0.978928 -0.913666 0.110196
v -0.990875 -0.890226 0.108784
v -1.000000 -0.890226 0.086756
v -0.890226 0.990875 0.108784
v -0.890226 1.000000 0.086756
v -0.912254 0.990875 0.086756
v -0.913666 0.978928 0.110196
v -0.990875 0.912254 0.086756
v -1.000000 0.890226 0.086756
v -0.990875 0.890226 0.108784
v -0.978928 0.913666 0.110196
v -0.890226 0.912254 0.187406
v -0.913666 0.913666 0.175458
v -0.912254 0.890226 0.187406
v -0.890226 0.890226 0.196530
v 0.890226 -0.990875 0.108785
v 0.890226 -1.000000 0.086756
v 0.912254 -0.990875 0.086756
v 0.913666 -0.978928 0.110196
v 0.990875 -0.912254 0.086756
v 1.000000 -0.890226 0.086756
v 0.990875 -0.890226 0.108785
v 0.978928 -0.913666 0.110196
v 0.890226 -0.912254 0.187406
v 0.913666 -0.913666 0.175458
v 0.912254 -0.890226 0.187406
v 0.890226 -0.890226 0.196530
v 0.912254 0.990875 0.086756
v 0.890226 1.000000 0.086756
v 0.890226 0.990875 0.108785
v 0.913666 0.978928 0.110196
v 0.890226 0.912254 0.187406
v 0.890226 0.890226 0.196530
v 0.912254 0.890226 0.187406
v 0.913666 0.913666 0.175458
v 0.990875 0.912254 0.086756
v 0.978928 0.913666 0.110196
v 0.990875 0.890226 0.108785
v 1.000000 0.890226 0.086756
vt 0.812636 0.006173
vt 0.812636 0.475067
vt 0.422482 0.475067
vt 0.422482 0.006173
vt 0.707435 0.976640
vt 0.707435 0.507746
vt 0.730033 0.507746
vt 0.730033 0.976640
vt 0.838894 0.335660
vt 0.874360 0.335660
vt 0.874360 0.364942
vt 0.838894 0.364942
vt 0.516426 0.940132
vt 0.515543 0.962650
vt 0.501877 0.946043
vt 0.597585 0.509378
vt 0.598468 0.531897
vt 0.583919 0.525985
vt 0.477423 0.970975
vt 0.439401 0.970975
vt 0.439401 0.539492
vt 0.477423 0.539492
vt 0.558535 0.968128
vt 0.520555 0.965978
vt 0.521618 0.938850
vt 0.559598 0.941000
vt 0.979539 0.700602
vt 0.880093 0.369044
vt 0.900554 0.354403
vt 1.000000 0.685961
vt 0.602597 0.506050
vt 0.640577 0.503900
vt 0.641640 0.531028
vt 0.603660 0.533178
vt 0.417346 0.026507
vt 0.417346 0.495400
vt 0.400117 0.495400
vt 0.400117 0.026507
vt 0.414728 0.501573
vt 0.400427 0.518760
vt 0.400427 0.501573
vt 0.005137 0.501202
vt 0.395290 0.501202
vt 0.395290 0.521907
vt 0.005137 0.521907
vt 0.482560 0.531639
vt 0.482560 0.509096
vt 0.496861 0.524912
vt 0.576736 0.503723
vt 0.559844 0.934728
vt 0.521864 0.932578
vt 0.538756 0.501573
vt 0.702211 0.976640
vt 0.667222 0.976640
vt 0.667222 0.507746
vt 0.702211 0.507746
vt 0.620798 0.970455
vt 0.603906 0.539450
vt 0.641886 0.537300
vt 0.658778 0.968305
vt 0.879739 0.338148
vt 0.896724 0.350301
vt 0.879739 0.362454
vt 0.434265 0.531639
vt 0.419964 0.524912
vt 0.434265 0.509096
vt 0.708745 0.982813
vt 0.727502 0.982813
vt 0.714342 1.000000
vt 0.005136 0.000000
vt 0.395290 0.000000
vt 0.395290 0.020705
vt 0.005136 0.020705
vt 0.563785 0.965381
vt 0.564667 0.942863
vt 0.578689 0.950391
vt 0.395290 0.495400
vt 0.005137 0.495400
vt 0.005136 0.026507
vt 0.395290 0.026507
vt 0.834691 0.006173
vt 0.834691 0.475067
vt 0.817463 0.475067
vt 0.817463 0.006173
vt 0.812636 0.501573
vt 0.422482 0.501573
vt 0.422482 0.480868
vt 0.812636 0.480868
vt 0.477423 0.533213
vt 0.439401 0.533213
vt 0.439401 0.506055
vt 0.477423 0.506055
vt 0.482250 0.538552
vt 0.477423 0.501573
vt 0.482250 0.503785
vt 0.812636 0.000372
vt 0.817772 0.000000
vt 0.517005 0.933245
vt 0.520379 0.970455
vt 0.515644 0.967973
vt 0.817772 0.481240
vt 0.875081 0.329859
vt 0.880093 0.331558
vt 0.422482 0.000372
vt 0.417655 0.006173
vt 0.417346 0.000000
vt 0.875081 0.370743
vt 0.597686 0.504055
vt 0.602422 0.501573
vt 0.599047 0.538784
vt 0.417346 0.481240
vt 0.417655 0.475067
vt 0.434574 0.538552
vt 0.400427 0.020334
vt 0.434574 0.503785
vt 0.439401 0.501573
vt 0.702993 0.501945
vt 0.708745 0.501573
vt 0.564629 0.935941
vt 0.000309 0.026507
vt 0.000000 0.020334
vt 0.835622 0.331558
vt 0.839615 0.329859
vt 0.834691 0.338148
vt 0.839615 0.370743
vt 0.835622 0.369044
vt 0.834691 0.362454
vt 0.702993 0.982441
vt 0.000309 0.495400
vt 0.000000 0.501573
vt 0.646709 0.529166
vt 0.646671 0.536088
vt 0.499479 0.530447
vt 0.832073 0.000000
vt 0.499479 0.940366
vt 0.817772 0.498427
vt 0.900554 0.346199
vt 0.417346 0.498427
vt 0.581521 0.531662
vt 0.417346 0.530447
vt 0.400427 0.003146
vt 0.727502 0.501573
vt 0.581521 0.945010
vt 0.645827 0.506648
vt 0.663563 0.527018
vt 0.660731 0.521637
vt 0.482250 0.970034
vt 0.533897 0.502240
vt 0.663563 0.976640
vt 0.663563 0.507746
vt 0.615939 0.969788
vt 0.668005 0.982441
vt 0.663563 0.967093
vt 0.434574 0.970034
vt 0.581521 0.504936
vt 0.668005 0.501945
vt 0.979539 0.000000
vt 1.000000 0.014641
vn 0.0000 0.0000 -1.0000
vn -0.0000 0.7071 0.7071
vn 0.7071 -0.7071 0.0000
vn -0.5773 0.5774 -0.5774
vn 0.5774 0.5773 -0.5774
vn 0.0000 -1.0000 0.0000
vn -0.7071 0.7071 0.0000
vn 0.7071 -0.0000 -0.7071
vn 0.7071 0.7071 0.0000
vn -0.0000 -0.7071 0.7071
vn 0.5773 -0.5774 0.5774
vn 0.7071 -0.0000 0.7071
vn -0.5773 -0.5774 -0.5774
vn -1.0000 0.0000 0.0000
vn 0.0000 1.0000 0.0000
vn 1.0000 0.0000 0.0000
vn 0.5773 -0.5774 -0.5774
vn -0.5773 -0.5774 0.5774
vn 0.5773 0.5774 0.5774
vn -0.7071 -0.0000 0.7071
vn -0.5774 0.5773 0.5774
vn -0.0000 0.0000 1.0000
vn -0.7071 0.0000 -0.7071
vn 0.0000 0.7071 -0.7071
vn -0.7071 -0.7071 0.0000
vn -0.3793 -0.8439 -0.3793
vn -0.8439 -0.3793 -0.3793
vn -0.3793 -0.3793 -0.8439
vn -0.8439 0.3793 -0.3793
vn -0.3793 0.8439 -0.3793
vn -0.3793 0.3793 -0.8439
vn 0.3793 -0.8439 -0.3793
vn 0.3793 -0.3793 -0.8439
vn 0.8439 -0.3793 -0.3793
vn 0.3793 0.8439 -0.3793
vn 0.8439 0.3793 -0.3793
vn 0.3793 0.3793 -0.8439
vn -0.3793 -0.8439 0.3793
vn -0.3793 -0.3793 0.8439
vn -0.8439 -0.3793 0.3793
vn -0.3793 0.8439 0.3793
vn -0.8439 0.3793 0.3793
vn -0.3793 0.3793 0.8439
vn 0.3793 -0.8439 0.3793
vn 0.8439 -0.3793 0.3793
vn 0.3793 -0.3793 0.8439
vn 0.3793 0.8439 0.3793
vn 0.3793 0.3793 0.8439
vn 0.8439 0.3793 0.3793
vn -0.3029 -0.6739 -0.6739
vn -0.6739 -0.6739 -0.3029
vn -0.6739 -0.3029 -0.6739
vn -0.6739 0.3029 -0.6739
vn -0.6739 0.6739 -0.3029
vn -0.3029 0.6739 -0.6739
vn 0.6739 -0.6739 -0.3029
vn 0.3029 -0.6739 -0.6739
vn 0.6739 -0.3029 -0.6739
vn 0.3029 0.6739 -0.6739
vn 0.6739 0.6739 -0.3029
vn 0.6739 0.3029 -0.6739
vn -0.6739 -0.6739 0.3029
vn -0.3029 -0.6739 0.6739
vn -0.6739 -0.3029 0.6739
vn -0.3029 0.6739 0.6739
vn -0.6739 0.6739 0.3029
vn -0.6739 0.3029 0.6739
vn 0.3029 -0.6739 0.6739
vn 0.6739 -0.6739 0.3029
vn 0.6739 -0.3029 0.6739
vn 0.6739 0.6739 0.3029
vn 0.3029 0.6739 0.6739
vn 0.6739 0.3029 0.6739
vn 0.0000 -0.9239 -0.3827
vn 0.0000 -0.3827 -0.9239
vn -0.9239 0.0000 -0.3827
vn -0.3827 -0.0000 -0.9239
vn 0.0000 0.9239 -0.3827
vn 0.0000 0.3827 -0.9239
vn 0.9239 -0.0000 -0.3827
vn 0.3827 0.0000 -0.9239
vn 0.3827 -0.9239 0.0000
vn 0.9239 -0.3827 0.0000
vn 0.3827 0.9239 0.0000
vn 0.9239 0.3827 0.0000
vn 0.3827 -0.0000 0.9239
vn 0.9239 0.0000 0.3827
vn -0.0000 -0.9239 0.3827
vn -0.0000 -0.3827 0.9239
vn -0.0000 0.9239 0.3827
vn -0.0000 0.3827 0.9239
vn -0.9239 -0.0000 0.3827
vn -0.3827 0.0000 0.9239
vn -0.3827 -0.9239 0.0000
vn -0.9239 -0.3827 0.0000
vn -0.3827 0.9239 0.0000
vn -0.9239 0.3827 0.0000
vn 0.0000 -0.7071 -0.7071
s off
f 12/1/1 24/2/1 48/3/1 30/4/1
f 87/5/2 61/6/2 69/7/2 89/8/2
f 75/9/3 25/10/3 33/11/3 77/12/3
f 16/13/4 20/14/4 22/15/4
f 40/16/5 44/17/5 46/18/5
f 26/19/6 74/20/6 50/21/6 2/22/6
f 63/23/7 17/24/7 15/25/7 65/26/7
f 43/27/8 35/28/8 31/29/8 47/30/8
f 39/31/9 85/32/9 93/33/9 41/34/9
f 51/35/10 73/36/10 81/37/10 53/38/10
f 76/39/11 80/40/11 82/41/11
f 91/42/12 83/43/12 79/44/12 95/45/12
f 4/46/13 8/47/13 10/48/13
f 60/49/14 66/50/14 14/51/14 6/52/14
f 86/53/15 38/54/15 18/55/15 62/56/15
f 36/57/16 42/58/16 96/59/16 78/60/16
f 28/61/17 32/62/17 34/63/17
f 52/64/18 56/65/18 58/66/18
f 88/67/19 92/68/19 94/69/19
f 67/70/20 59/71/20 55/72/20 71/73/20
f 64/74/21 68/75/21 70/76/21
f 84/77/22 90/78/22 72/79/22 54/80/22
f 7/81/23 13/82/23 21/83/23 11/84/23
f 19/85/24 37/86/24 45/87/24 23/88/24
f 3/89/25 49/90/25 57/91/25 5/92/25
f 1/93/26 2/22/26 3/89/26 4/46/26
f 5/92/27 6/94/27 7/95/27 8/47/27
f 9/96/28 10/97/28 11/84/28 12/1/28
f 13/98/29 14/51/29 15/25/29 16/13/29
f 17/24/30 18/99/30 19/100/30 20/14/30
f 21/83/31 22/101/31 23/88/31 24/2/31
f 25/10/32 26/102/32 27/103/32 28/61/32
f 29/104/33 30/4/33 31/105/33 32/106/33
f 33/11/34 34/63/34 35/28/34 36/107/34
f 37/108/35 38/109/35 39/31/35 40/16/35
f 41/34/36 42/58/36 43/110/36 44/17/36
f 45/87/37 46/111/37 47/112/37 48/3/37
f 49/90/38 50/21/38 51/113/38 52/64/38
f 53/38/39 54/80/39 55/72/39 56/114/39
f 57/91/40 58/66/40 59/115/40 60/116/40
f 61/6/41 62/56/41 63/117/41 64/118/41
f 65/26/42 66/50/42 67/119/42 68/75/42
f 69/120/43 70/121/43 71/73/43 72/79/43
f 73/122/44 74/123/44 75/9/44 76/124/44
f 77/12/45 78/125/45 79/126/45 80/127/45
f 81/37/46 82/41/46 83/43/46 84/77/46
f 85/128/47 86/53/47 87/5/47 88/67/47
f 89/129/48 90/78/48 91/42/48 92/130/48
f 93/33/49 94/131/49 95/132/49 96/59/49
f 9/133/50 1/93/50 4/46/50 10/48/50
f 3/89/51 5/92/51 8/47/51 4/46/51
f 7/81/52 11/84/52 10/97/52 8/134/52
f 21/135/53 13/98/53 16/13/53 22/15/53
f 15/25/54 17/24/54 20/14/54 16/13/54
f 19/85/55 23/88/55 22/101/55 20/136/55
f 33/11/56 25/10/56 28/61/56 34/63/56
f 27/103/57 29/137/57 32/62/57 28/61/57
f 31/29/58 35/28/58 34/63/58 32/62/58
f 45/87/59 37/86/59 40/138/59 46/111/59
f 39/31/60 41/34/60 44/17/60 40/16/60
f 43/110/61 47/139/61 46/18/61 44/17/61
f 57/91/62 49/90/62 52/64/62 58/66/62
f 51/113/63 53/140/63 56/65/63 52/64/63
f 55/72/64 59/71/64 58/141/64 56/114/64
f 69/7/65 61/6/65 64/118/65 70/142/65
f 63/23/66 65/26/66 68/75/66 64/74/66
f 67/119/67 71/143/67 70/76/67 68/75/67
f 81/37/68 73/36/68 76/39/68 82/41/68
f 75/9/69 77/12/69 80/127/69 76/124/69
f 79/44/70 83/43/70 82/41/70 80/40/70
f 93/33/71 85/32/71 88/144/71 94/131/71
f 87/5/72 89/8/72 92/68/72 88/67/72
f 91/145/73 95/132/73 94/131/73 92/146/73
f 26/19/74 2/22/74 1/93/74 27/147/74
f 12/1/75 30/4/75 29/104/75 9/96/75
f 6/52/76 14/51/76 13/98/76 7/148/76
f 24/2/77 12/1/77 11/84/77 21/83/77
f 18/55/78 38/54/78 37/149/78 19/150/78
f 48/3/79 24/2/79 23/88/79 45/87/79
f 42/58/80 36/57/80 35/151/80 43/110/80
f 30/4/81 48/3/81 47/112/81 31/105/81
f 74/123/82 26/102/82 25/10/82 75/9/82
f 36/107/83 78/125/83 77/12/83 33/11/83
f 38/54/84 86/53/84 85/128/84 39/152/84
f 96/59/85 42/58/85 41/34/85 93/33/85
f 90/78/86 84/77/86 83/43/86 91/42/86
f 78/60/87 96/59/87 95/132/87 79/153/87
f 50/21/88 74/20/88 73/154/88 51/113/88
f 84/77/89 54/80/89 53/38/89 81/37/89
f 86/53/90 62/56/90 61/6/90 87/5/90
f 72/79/91 90/78/91 89/129/91 69/120/91
f 66/50/92 60/49/92 59/155/92 67/119/92
f 54/80/93 72/79/93 71/73/93 55/72/93
f 2/22/94 50/21/94 49/90/94 3/89/94
f 60/116/95 6/94/95 5/92/95 57/91/95
f 62/56/96 18/55/96 17/156/96 63/117/96
f 14/51/97 66/50/97 65/26/97 15/25/97
f 27/103/98 1/157/98 9/158/98 29/137/98
